<?xml version="1.0" encoding="utf-8" standalone="no"?>
<!DOCTYPE svg PUBLIC "-//W3C//DTD SVG 1.1//EN"
  "http://www.w3.org/Graphics/SVG/1.1/DTD/svg11.dtd">
<svg xmlns:xlink="http://www.w3.org/1999/xlink" width="714.240625pt" height="712.09125pt" viewBox="0 0 714.240625 712.09125" xmlns="http://www.w3.org/2000/svg" version="1.1">
 <metadata>
  <rdf:RDF xmlns:dc="http://purl.org/dc/elements/1.1/" xmlns:cc="http://creativecommons.org/ns#" xmlns:rdf="http://www.w3.org/1999/02/22-rdf-syntax-ns#">
   <cc:Work>
    <dc:type rdf:resource="http://purl.org/dc/dcmitype/StillImage"/>
    <dc:date>2026-01-13T12:38:57.277491</dc:date>
    <dc:format>image/svg+xml</dc:format>
    <dc:creator>
     <cc:Agent>
      <dc:title>Matplotlib v3.10.8, https://matplotlib.org/</dc:title>
     </cc:Agent>
    </dc:creator>
   </cc:Work>
  </rdf:RDF>
 </metadata>
 <defs>
  <style type="text/css">*{stroke-linejoin: round; stroke-linecap: butt}</style>
 </defs>
 <g id="figure_1">
  <g id="patch_1">
   <path d="M 0 712.09125 
L 714.240625 712.09125 
L 714.240625 0 
L 0 0 
z
" style="fill: #ffffff"/>
  </g>
  <g id="axes_1">
   <g id="patch_2">
    <path d="M 669.086562 372.124375 
C 669.086562 331.026844 660.991245 290.328935 645.263901 252.359768 
C 629.536557 214.390601 606.483043 179.888579 577.422701 150.828237 
C 548.362358 121.767894 513.860337 98.714381 475.891169 82.987037 
C 437.922002 67.259692 397.224093 59.164375 356.126562 59.164375 
C 315.029032 59.164375 274.331123 67.259692 236.361956 82.987037 
C 198.392788 98.714381 163.890767 121.767894 134.830424 150.828237 
C 105.770082 179.888579 82.716568 214.390601 66.989224 252.359768 
C 51.26188 290.328935 43.166563 331.026844 43.166563 372.124375 
C 43.166563 413.221906 51.26188 453.919815 66.989224 491.888982 
C 82.716568 529.858149 105.770082 564.360171 134.830424 593.420513 
C 163.890767 622.480856 198.392788 645.534369 236.361956 661.261713 
C 274.331123 676.989058 315.029032 685.084375 356.126562 685.084375 
C 397.224093 685.084375 437.922002 676.989058 475.891169 661.261713 
C 513.860337 645.534369 548.362358 622.480856 577.422701 593.420513 
C 606.483043 564.360171 629.536557 529.858149 645.263901 491.888982 
C 660.991245 453.919815 669.086562 413.221906 669.086562 372.124375 
M 356.126562 372.124375 
C 356.126562 372.124375 356.126562 372.124375 356.126562 372.124375 
C 356.126562 372.124375 356.126562 372.124375 356.126562 372.124375 
C 356.126562 372.124375 356.126562 372.124375 356.126562 372.124375 
C 356.126562 372.124375 356.126562 372.124375 356.126562 372.124375 
C 356.126562 372.124375 356.126562 372.124375 356.126562 372.124375 
C 356.126562 372.124375 356.126562 372.124375 356.126562 372.124375 
C 356.126562 372.124375 356.126562 372.124375 356.126562 372.124375 
C 356.126562 372.124375 356.126562 372.124375 356.126562 372.124375 
C 356.126562 372.124375 356.126562 372.124375 356.126562 372.124375 
C 356.126562 372.124375 356.126562 372.124375 356.126562 372.124375 
C 356.126562 372.124375 356.126562 372.124375 356.126562 372.124375 
C 356.126562 372.124375 356.126562 372.124375 356.126562 372.124375 
C 356.126562 372.124375 356.126562 372.124375 356.126562 372.124375 
C 356.126562 372.124375 356.126562 372.124375 356.126562 372.124375 
C 356.126562 372.124375 356.126562 372.124375 356.126562 372.124375 
C 356.126562 372.124375 356.126562 372.124375 356.126562 372.124375 
z
" style="fill: #ffffff"/>
   </g>
   <g id="patch_3">
    <path d="M 622.142562 372.124375 
L 522.098666 206.152271 
L 356.126562 153.052375 
L 179.089652 195.087464 
L 137.054562 372.124375 
L 190.154459 538.096479 
L 356.126562 591.196375 
L 533.163473 549.161286 
z
" clip-path="url(#p67637d4924)" style="fill: #4a90e2; opacity: 0.25; stroke: #4a90e2; stroke-linejoin: miter"/>
   </g>
   <g id="matplotlib.axis_1">
    <g id="xtick_1">
     <g id="line2d_1">
      <path d="M 356.126562 372.124375 
L 669.086562 372.124375 
" clip-path="url(#p67637d4924)" style="fill: none; stroke-dasharray: 2.96,1.28; stroke-dashoffset: 0; stroke: #b0b0b0; stroke-opacity: 0.7; stroke-width: 0.8"/>
     </g>
     <g id="text_1">
      <!-- Python -->
      <g transform="translate(659.1325 375.38875) scale(0.12 -0.12)">
       <defs>
        <path id="DejaVuSans-Bold-50" d="M 588 4666 
L 2584 4666 
Q 3475 4666 3951 4270 
Q 4428 3875 4428 3144 
Q 4428 2409 3951 2014 
Q 3475 1619 2584 1619 
L 1791 1619 
L 1791 0 
L 588 0 
L 588 4666 
z
M 1791 3794 
L 1791 2491 
L 2456 2491 
Q 2806 2491 2997 2661 
Q 3188 2831 3188 3144 
Q 3188 3456 2997 3625 
Q 2806 3794 2456 3794 
L 1791 3794 
z
" transform="scale(0.015625)"/>
        <path id="DejaVuSans-Bold-79" d="M 78 3500 
L 1197 3500 
L 2138 1125 
L 2938 3500 
L 4056 3500 
L 2584 -331 
Q 2363 -916 2067 -1148 
Q 1772 -1381 1288 -1381 
L 641 -1381 
L 641 -647 
L 991 -647 
Q 1275 -647 1404 -556 
Q 1534 -466 1606 -231 
L 1638 -134 
L 78 3500 
z
" transform="scale(0.015625)"/>
        <path id="DejaVuSans-Bold-74" d="M 1759 4494 
L 1759 3500 
L 2913 3500 
L 2913 2700 
L 1759 2700 
L 1759 1216 
Q 1759 972 1856 886 
Q 1953 800 2241 800 
L 2816 800 
L 2816 0 
L 1856 0 
Q 1194 0 917 276 
Q 641 553 641 1216 
L 641 2700 
L 84 2700 
L 84 3500 
L 641 3500 
L 641 4494 
L 1759 4494 
z
" transform="scale(0.015625)"/>
        <path id="DejaVuSans-Bold-68" d="M 4056 2131 
L 4056 0 
L 2931 0 
L 2931 347 
L 2931 1625 
Q 2931 2084 2911 2256 
Q 2891 2428 2841 2509 
Q 2775 2619 2662 2680 
Q 2550 2741 2406 2741 
Q 2056 2741 1856 2470 
Q 1656 2200 1656 1722 
L 1656 0 
L 538 0 
L 538 4863 
L 1656 4863 
L 1656 2988 
Q 1909 3294 2193 3439 
Q 2478 3584 2822 3584 
Q 3428 3584 3742 3212 
Q 4056 2841 4056 2131 
z
" transform="scale(0.015625)"/>
        <path id="DejaVuSans-Bold-6f" d="M 2203 2784 
Q 1831 2784 1636 2517 
Q 1441 2250 1441 1747 
Q 1441 1244 1636 976 
Q 1831 709 2203 709 
Q 2569 709 2762 976 
Q 2956 1244 2956 1747 
Q 2956 2250 2762 2517 
Q 2569 2784 2203 2784 
z
M 2203 3584 
Q 3106 3584 3614 3096 
Q 4122 2609 4122 1747 
Q 4122 884 3614 396 
Q 3106 -91 2203 -91 
Q 1297 -91 786 396 
Q 275 884 275 1747 
Q 275 2609 786 3096 
Q 1297 3584 2203 3584 
z
" transform="scale(0.015625)"/>
        <path id="DejaVuSans-Bold-6e" d="M 4056 2131 
L 4056 0 
L 2931 0 
L 2931 347 
L 2931 1631 
Q 2931 2084 2911 2256 
Q 2891 2428 2841 2509 
Q 2775 2619 2662 2680 
Q 2550 2741 2406 2741 
Q 2056 2741 1856 2470 
Q 1656 2200 1656 1722 
L 1656 0 
L 538 0 
L 538 3500 
L 1656 3500 
L 1656 2988 
Q 1909 3294 2193 3439 
Q 2478 3584 2822 3584 
Q 3428 3584 3742 3212 
Q 4056 2841 4056 2131 
z
" transform="scale(0.015625)"/>
       </defs>
       <use xlink:href="#DejaVuSans-Bold-50"/>
       <use xlink:href="#DejaVuSans-Bold-79" transform="translate(75.166016 0)"/>
       <use xlink:href="#DejaVuSans-Bold-74" transform="translate(140.351562 0)"/>
       <use xlink:href="#DejaVuSans-Bold-68" transform="translate(188.154297 0)"/>
       <use xlink:href="#DejaVuSans-Bold-6f" transform="translate(259.345703 0)"/>
       <use xlink:href="#DejaVuSans-Bold-6e" transform="translate(328.046875 0)"/>
      </g>
     </g>
    </g>
    <g id="xtick_2">
     <g id="line2d_2">
      <path d="M 356.126562 372.124375 
L 577.422701 150.828237 
" clip-path="url(#p67637d4924)" style="fill: none; stroke-dasharray: 2.96,1.28; stroke-dashoffset: 0; stroke: #b0b0b0; stroke-opacity: 0.7; stroke-width: 0.8"/>
     </g>
     <g id="text_2">
      <!-- Java -->
      <g transform="translate(573.080633 144.239992) scale(0.12 -0.12)">
       <defs>
        <path id="DejaVuSans-Bold-4a" d="M 588 4666 
L 1791 4666 
L 1791 453 
Q 1791 -419 1317 -850 
Q 844 -1281 -116 -1281 
L -359 -1281 
L -359 -372 
L -172 -372 
Q 203 -372 395 -162 
Q 588 47 588 453 
L 588 4666 
z
" transform="scale(0.015625)"/>
        <path id="DejaVuSans-Bold-61" d="M 2106 1575 
Q 1756 1575 1579 1456 
Q 1403 1338 1403 1106 
Q 1403 894 1545 773 
Q 1688 653 1941 653 
Q 2256 653 2472 879 
Q 2688 1106 2688 1447 
L 2688 1575 
L 2106 1575 
z
M 3816 1997 
L 3816 0 
L 2688 0 
L 2688 519 
Q 2463 200 2181 54 
Q 1900 -91 1497 -91 
Q 953 -91 614 226 
Q 275 544 275 1050 
Q 275 1666 698 1953 
Q 1122 2241 2028 2241 
L 2688 2241 
L 2688 2328 
Q 2688 2594 2478 2717 
Q 2269 2841 1825 2841 
Q 1466 2841 1156 2769 
Q 847 2697 581 2553 
L 581 3406 
Q 941 3494 1303 3539 
Q 1666 3584 2028 3584 
Q 2975 3584 3395 3211 
Q 3816 2838 3816 1997 
z
" transform="scale(0.015625)"/>
        <path id="DejaVuSans-Bold-76" d="M 97 3500 
L 1216 3500 
L 2088 1081 
L 2956 3500 
L 4078 3500 
L 2700 0 
L 1472 0 
L 97 3500 
z
" transform="scale(0.015625)"/>
       </defs>
       <use xlink:href="#DejaVuSans-Bold-4a"/>
       <use xlink:href="#DejaVuSans-Bold-61" transform="translate(37.207031 0)"/>
       <use xlink:href="#DejaVuSans-Bold-76" transform="translate(104.6875 0)"/>
       <use xlink:href="#DejaVuSans-Bold-61" transform="translate(169.873047 0)"/>
      </g>
     </g>
    </g>
    <g id="xtick_3">
     <g id="line2d_3">
      <path d="M 356.126562 372.124375 
L 356.126562 59.164375 
" clip-path="url(#p67637d4924)" style="fill: none; stroke-dasharray: 2.96,1.28; stroke-dashoffset: 0; stroke: #b0b0b0; stroke-opacity: 0.7; stroke-width: 0.8"/>
     </g>
     <g id="text_3">
      <!-- C++ -->
      <g transform="translate(341.6675 48.475625) scale(0.12 -0.12)">
       <defs>
        <path id="DejaVuSans-Bold-43" d="M 4288 256 
Q 3956 84 3597 -3 
Q 3238 -91 2847 -91 
Q 1681 -91 1000 561 
Q 319 1213 319 2328 
Q 319 3447 1000 4098 
Q 1681 4750 2847 4750 
Q 3238 4750 3597 4662 
Q 3956 4575 4288 4403 
L 4288 3438 
Q 3953 3666 3628 3772 
Q 3303 3878 2944 3878 
Q 2300 3878 1931 3465 
Q 1563 3053 1563 2328 
Q 1563 1606 1931 1193 
Q 2300 781 2944 781 
Q 3303 781 3628 887 
Q 3953 994 4288 1222 
L 4288 256 
z
" transform="scale(0.015625)"/>
        <path id="DejaVuSans-Bold-2b" d="M 3053 4013 
L 3053 2375 
L 4684 2375 
L 4684 1638 
L 3053 1638 
L 3053 0 
L 2309 0 
L 2309 1638 
L 678 1638 
L 678 2375 
L 2309 2375 
L 2309 4013 
L 3053 4013 
z
" transform="scale(0.015625)"/>
       </defs>
       <use xlink:href="#DejaVuSans-Bold-43"/>
       <use xlink:href="#DejaVuSans-Bold-2b" transform="translate(73.388672 0)"/>
       <use xlink:href="#DejaVuSans-Bold-2b" transform="translate(157.177734 0)"/>
      </g>
     </g>
    </g>
    <g id="xtick_4">
     <g id="line2d_4">
      <path d="M 356.126562 372.124375 
L 134.830424 150.828237 
" clip-path="url(#p67637d4924)" style="fill: none; stroke-dasharray: 2.96,1.28; stroke-dashoffset: 0; stroke: #b0b0b0; stroke-opacity: 0.7; stroke-width: 0.8"/>
     </g>
     <g id="text_4">
      <!-- AI/ML -->
      <g transform="translate(106.069367 144.239992) scale(0.12 -0.12)">
       <defs>
        <path id="DejaVuSans-Bold-41" d="M 3419 850 
L 1538 850 
L 1241 0 
L 31 0 
L 1759 4666 
L 3194 4666 
L 4922 0 
L 3713 0 
L 3419 850 
z
M 1838 1716 
L 3116 1716 
L 2478 3572 
L 1838 1716 
z
" transform="scale(0.015625)"/>
        <path id="DejaVuSans-Bold-49" d="M 588 4666 
L 1791 4666 
L 1791 0 
L 588 0 
L 588 4666 
z
" transform="scale(0.015625)"/>
        <path id="DejaVuSans-Bold-2f" d="M 1644 4666 
L 2338 4666 
L 691 -594 
L 0 -594 
L 1644 4666 
z
" transform="scale(0.015625)"/>
        <path id="DejaVuSans-Bold-4d" d="M 588 4666 
L 2119 4666 
L 3181 2169 
L 4250 4666 
L 5778 4666 
L 5778 0 
L 4641 0 
L 4641 3413 
L 3566 897 
L 2803 897 
L 1728 3413 
L 1728 0 
L 588 0 
L 588 4666 
z
" transform="scale(0.015625)"/>
        <path id="DejaVuSans-Bold-4c" d="M 588 4666 
L 1791 4666 
L 1791 909 
L 3903 909 
L 3903 0 
L 588 0 
L 588 4666 
z
" transform="scale(0.015625)"/>
       </defs>
       <use xlink:href="#DejaVuSans-Bold-41"/>
       <use xlink:href="#DejaVuSans-Bold-49" transform="translate(77.392578 0)"/>
       <use xlink:href="#DejaVuSans-Bold-2f" transform="translate(114.599609 0)"/>
       <use xlink:href="#DejaVuSans-Bold-4d" transform="translate(151.123047 0)"/>
       <use xlink:href="#DejaVuSans-Bold-4c" transform="translate(250.634766 0)"/>
      </g>
     </g>
    </g>
    <g id="xtick_5">
     <g id="line2d_5">
      <path d="M 356.126562 372.124375 
L 43.166562 372.124375 
" clip-path="url(#p67637d4924)" style="fill: none; stroke-dasharray: 2.96,1.28; stroke-dashoffset: 0; stroke: #b0b0b0; stroke-opacity: 0.7; stroke-width: 0.8"/>
     </g>
     <g id="text_5">
      <!-- Web前端 -->
      <g transform="translate(7.2 375.435625) scale(0.12 -0.12)">
       <defs>
        <path id="DejaVuSans-Bold-57" d="M 191 4666 
L 1344 4666 
L 2150 1275 
L 2950 4666 
L 4109 4666 
L 4909 1275 
L 5716 4666 
L 6859 4666 
L 5759 0 
L 4372 0 
L 3525 3547 
L 2688 0 
L 1300 0 
L 191 4666 
z
" transform="scale(0.015625)"/>
        <path id="DejaVuSans-Bold-65" d="M 4031 1759 
L 4031 1441 
L 1416 1441 
Q 1456 1047 1700 850 
Q 1944 653 2381 653 
Q 2734 653 3104 758 
Q 3475 863 3866 1075 
L 3866 213 
Q 3469 63 3072 -14 
Q 2675 -91 2278 -91 
Q 1328 -91 801 392 
Q 275 875 275 1747 
Q 275 2603 792 3093 
Q 1309 3584 2216 3584 
Q 3041 3584 3536 3087 
Q 4031 2591 4031 1759 
z
M 2881 2131 
Q 2881 2450 2695 2645 
Q 2509 2841 2209 2841 
Q 1884 2841 1681 2658 
Q 1478 2475 1428 2131 
L 2881 2131 
z
" transform="scale(0.015625)"/>
        <path id="DejaVuSans-Bold-62" d="M 2400 722 
Q 2759 722 2948 984 
Q 3138 1247 3138 1747 
Q 3138 2247 2948 2509 
Q 2759 2772 2400 2772 
Q 2041 2772 1848 2508 
Q 1656 2244 1656 1747 
Q 1656 1250 1848 986 
Q 2041 722 2400 722 
z
M 1656 2988 
Q 1888 3294 2169 3439 
Q 2450 3584 2816 3584 
Q 3463 3584 3878 3070 
Q 4294 2556 4294 1747 
Q 4294 938 3878 423 
Q 3463 -91 2816 -91 
Q 2450 -91 2169 54 
Q 1888 200 1656 506 
L 1656 0 
L 538 0 
L 538 4863 
L 1656 4863 
L 1656 2988 
z
" transform="scale(0.015625)"/>
        <path id="DejaVuSans-Bold-524d" d="M 319 -1131 
L 319 4513 
L 3519 4513 
L 3519 -1131 
L 319 -1131 
z
M 678 -775 
L 3163 -775 
L 3163 4153 
L 678 4153 
L 678 -775 
z
" transform="scale(0.015625)"/>
        <path id="DejaVuSans-Bold-7aef" d="M 319 -1131 
L 319 4513 
L 3519 4513 
L 3519 -1131 
L 319 -1131 
z
M 678 -775 
L 3163 -775 
L 3163 4153 
L 678 4153 
L 678 -775 
z
" transform="scale(0.015625)"/>
       </defs>
       <use xlink:href="#DejaVuSans-Bold-57"/>
       <use xlink:href="#DejaVuSans-Bold-65" transform="translate(106.677734 0)"/>
       <use xlink:href="#DejaVuSans-Bold-62" transform="translate(174.5 0)"/>
       <use xlink:href="#DejaVuSans-Bold-524d" transform="translate(246.082031 0)"/>
       <use xlink:href="#DejaVuSans-Bold-7aef" transform="translate(306.091797 0)"/>
      </g>
     </g>
    </g>
    <g id="xtick_6">
     <g id="line2d_6">
      <path d="M 356.126562 372.124375 
L 134.830424 593.420513 
" clip-path="url(#p67637d4924)" style="fill: none; stroke-dasharray: 2.96,1.28; stroke-dashoffset: 0; stroke: #b0b0b0; stroke-opacity: 0.7; stroke-width: 0.8"/>
     </g>
     <g id="text_6">
      <!-- Web后端 -->
      <g transform="translate(102.964367 606.631258) scale(0.12 -0.12)">
       <defs>
        <path id="DejaVuSans-Bold-540e" d="M 319 -1131 
L 319 4513 
L 3519 4513 
L 3519 -1131 
L 319 -1131 
z
M 678 -775 
L 3163 -775 
L 3163 4153 
L 678 4153 
L 678 -775 
z
" transform="scale(0.015625)"/>
       </defs>
       <use xlink:href="#DejaVuSans-Bold-57"/>
       <use xlink:href="#DejaVuSans-Bold-65" transform="translate(106.677734 0)"/>
       <use xlink:href="#DejaVuSans-Bold-62" transform="translate(174.5 0)"/>
       <use xlink:href="#DejaVuSans-Bold-540e" transform="translate(246.082031 0)"/>
       <use xlink:href="#DejaVuSans-Bold-7aef" transform="translate(306.091797 0)"/>
      </g>
     </g>
    </g>
    <g id="xtick_7">
     <g id="line2d_7">
      <path d="M 356.126562 372.124375 
L 356.126562 685.084375 
" clip-path="url(#p67637d4924)" style="fill: none; stroke-dasharray: 2.96,1.28; stroke-dashoffset: 0; stroke: #b0b0b0; stroke-opacity: 0.7; stroke-width: 0.8"/>
     </g>
     <g id="text_7">
      <!-- 数据库 -->
      <g transform="translate(345.32375 702.395625) scale(0.12 -0.12)">
       <defs>
        <path id="DejaVuSans-Bold-6570" d="M 319 -1131 
L 319 4513 
L 3519 4513 
L 3519 -1131 
L 319 -1131 
z
M 678 -775 
L 3163 -775 
L 3163 4153 
L 678 4153 
L 678 -775 
z
" transform="scale(0.015625)"/>
        <path id="DejaVuSans-Bold-636e" d="M 319 -1131 
L 319 4513 
L 3519 4513 
L 3519 -1131 
L 319 -1131 
z
M 678 -775 
L 3163 -775 
L 3163 4153 
L 678 4153 
L 678 -775 
z
" transform="scale(0.015625)"/>
        <path id="DejaVuSans-Bold-5e93" d="M 319 -1131 
L 319 4513 
L 3519 4513 
L 3519 -1131 
L 319 -1131 
z
M 678 -775 
L 3163 -775 
L 3163 4153 
L 678 4153 
L 678 -775 
z
" transform="scale(0.015625)"/>
       </defs>
       <use xlink:href="#DejaVuSans-Bold-6570"/>
       <use xlink:href="#DejaVuSans-Bold-636e" transform="translate(60.009766 0)"/>
       <use xlink:href="#DejaVuSans-Bold-5e93" transform="translate(120.019531 0)"/>
      </g>
     </g>
    </g>
    <g id="xtick_8">
     <g id="line2d_8">
      <path d="M 356.126562 372.124375 
L 577.422701 593.420513 
" clip-path="url(#p67637d4924)" style="fill: none; stroke-dasharray: 2.96,1.28; stroke-dashoffset: 0; stroke: #b0b0b0; stroke-opacity: 0.7; stroke-width: 0.8"/>
     </g>
     <g id="text_8">
      <!-- 工具链 -->
      <g transform="translate(576.519383 606.631258) scale(0.12 -0.12)">
       <defs>
        <path id="DejaVuSans-Bold-5de5" d="M 319 -1131 
L 319 4513 
L 3519 4513 
L 3519 -1131 
L 319 -1131 
z
M 678 -775 
L 3163 -775 
L 3163 4153 
L 678 4153 
L 678 -775 
z
" transform="scale(0.015625)"/>
        <path id="DejaVuSans-Bold-5177" d="M 319 -1131 
L 319 4513 
L 3519 4513 
L 3519 -1131 
L 319 -1131 
z
M 678 -775 
L 3163 -775 
L 3163 4153 
L 678 4153 
L 678 -775 
z
" transform="scale(0.015625)"/>
        <path id="DejaVuSans-Bold-94fe" d="M 319 -1131 
L 319 4513 
L 3519 4513 
L 3519 -1131 
L 319 -1131 
z
M 678 -775 
L 3163 -775 
L 3163 4153 
L 678 4153 
L 678 -775 
z
" transform="scale(0.015625)"/>
       </defs>
       <use xlink:href="#DejaVuSans-Bold-5de5"/>
       <use xlink:href="#DejaVuSans-Bold-5177" transform="translate(60.009766 0)"/>
       <use xlink:href="#DejaVuSans-Bold-94fe" transform="translate(120.019531 0)"/>
      </g>
     </g>
    </g>
   </g>
   <g id="matplotlib.axis_2">
    <g id="ytick_1">
     <g id="line2d_9">
      <path d="M 418.718562 372.124375 
C 418.718562 363.904869 417.099499 355.765287 413.95403 348.171454 
C 410.808561 340.57762 406.197859 333.677216 400.38579 327.865147 
C 394.573722 322.053079 387.673317 317.442376 380.079484 314.296907 
C 372.48565 311.151438 364.346069 309.532375 356.126562 309.532375 
C 347.907056 309.532375 339.767475 311.151438 332.173641 314.296907 
C 324.579808 317.442376 317.679403 322.053079 311.867335 327.865147 
C 306.055266 333.677216 301.444564 340.57762 298.299095 348.171454 
C 295.153626 355.765287 293.534562 363.904869 293.534562 372.124375 
C 293.534562 380.343881 295.153626 388.483463 298.299095 396.077296 
C 301.444564 403.67113 306.055266 410.571534 311.867335 416.383603 
C 317.679403 422.195671 324.579808 426.806374 332.173641 429.951843 
C 339.767475 433.097312 347.907056 434.716375 356.126562 434.716375 
C 364.346069 434.716375 372.48565 433.097312 380.079484 429.951843 
C 387.673317 426.806374 394.573722 422.195671 400.38579 416.383603 
C 406.197859 410.571534 410.808561 403.67113 413.95403 396.077296 
C 417.099499 388.483463 418.718562 380.343881 418.718562 372.124375 
" clip-path="url(#p67637d4924)" style="fill: none; stroke-dasharray: 2.96,1.28; stroke-dashoffset: 0; stroke: #b0b0b0; stroke-opacity: 0.7; stroke-width: 0.8"/>
     </g>
     <g id="text_9">
      <!-- 20 -->
      <g transform="translate(413.95403 346.091766) scale(0.1 -0.1)">
       <defs>
        <path id="DejaVuSans-32" d="M 1228 531 
L 3431 531 
L 3431 0 
L 469 0 
L 469 531 
Q 828 903 1448 1529 
Q 2069 2156 2228 2338 
Q 2531 2678 2651 2914 
Q 2772 3150 2772 3378 
Q 2772 3750 2511 3984 
Q 2250 4219 1831 4219 
Q 1534 4219 1204 4116 
Q 875 4013 500 3803 
L 500 4441 
Q 881 4594 1212 4672 
Q 1544 4750 1819 4750 
Q 2544 4750 2975 4387 
Q 3406 4025 3406 3419 
Q 3406 3131 3298 2873 
Q 3191 2616 2906 2266 
Q 2828 2175 2409 1742 
Q 1991 1309 1228 531 
z
" transform="scale(0.015625)"/>
        <path id="DejaVuSans-30" d="M 2034 4250 
Q 1547 4250 1301 3770 
Q 1056 3291 1056 2328 
Q 1056 1369 1301 889 
Q 1547 409 2034 409 
Q 2525 409 2770 889 
Q 3016 1369 3016 2328 
Q 3016 3291 2770 3770 
Q 2525 4250 2034 4250 
z
M 2034 4750 
Q 2819 4750 3233 4129 
Q 3647 3509 3647 2328 
Q 3647 1150 3233 529 
Q 2819 -91 2034 -91 
Q 1250 -91 836 529 
Q 422 1150 422 2328 
Q 422 3509 836 4129 
Q 1250 4750 2034 4750 
z
" transform="scale(0.015625)"/>
       </defs>
       <use xlink:href="#DejaVuSans-32"/>
       <use xlink:href="#DejaVuSans-30" transform="translate(63.623047 0)"/>
      </g>
     </g>
    </g>
    <g id="ytick_2">
     <g id="line2d_10">
      <path d="M 481.310562 372.124375 
C 481.310562 355.685363 478.072436 339.406199 471.781498 324.218532 
C 465.49056 309.030865 456.269155 295.230057 444.645018 283.60592 
C 433.020881 271.981783 419.220072 262.760377 404.032405 256.46944 
C 388.844738 250.178502 372.565575 246.940375 356.126562 246.940375 
C 339.68755 246.940375 323.408387 250.178502 308.22072 256.46944 
C 293.033053 262.760377 279.232244 271.981783 267.608107 283.60592 
C 255.98397 295.230057 246.762565 309.030865 240.471627 324.218532 
C 234.180689 339.406199 230.942562 355.685363 230.942562 372.124375 
C 230.942562 388.563387 234.180689 404.842551 240.471627 420.030218 
C 246.762565 435.217885 255.98397 449.018693 267.608107 460.64283 
C 279.232244 472.266967 293.033053 481.488373 308.22072 487.77931 
C 323.408387 494.070248 339.68755 497.308375 356.126562 497.308375 
C 372.565575 497.308375 388.844738 494.070248 404.032405 487.77931 
C 419.220072 481.488373 433.020881 472.266967 444.645018 460.64283 
C 456.269155 449.018693 465.49056 435.217885 471.781498 420.030218 
C 478.072436 404.842551 481.310562 388.563387 481.310562 372.124375 
" clip-path="url(#p67637d4924)" style="fill: none; stroke-dasharray: 2.96,1.28; stroke-dashoffset: 0; stroke: #b0b0b0; stroke-opacity: 0.7; stroke-width: 0.8"/>
     </g>
     <g id="text_10">
      <!-- 40 -->
      <g transform="translate(471.781498 322.138845) scale(0.1 -0.1)">
       <defs>
        <path id="DejaVuSans-34" d="M 2419 4116 
L 825 1625 
L 2419 1625 
L 2419 4116 
z
M 2253 4666 
L 3047 4666 
L 3047 1625 
L 3713 1625 
L 3713 1100 
L 3047 1100 
L 3047 0 
L 2419 0 
L 2419 1100 
L 313 1100 
L 313 1709 
L 2253 4666 
z
" transform="scale(0.015625)"/>
       </defs>
       <use xlink:href="#DejaVuSans-34"/>
       <use xlink:href="#DejaVuSans-30" transform="translate(63.623047 0)"/>
      </g>
     </g>
    </g>
    <g id="ytick_3">
     <g id="line2d_11">
      <path d="M 543.902562 372.124375 
C 543.902562 347.465857 539.045372 323.047111 529.608966 300.265611 
C 520.172559 277.48411 506.340451 256.782898 488.904245 239.346692 
C 471.46804 221.910486 450.766827 208.078378 427.985327 198.641972 
C 405.203826 189.205565 380.785081 184.348375 356.126562 184.348375 
C 331.468044 184.348375 307.049299 189.205565 284.267798 198.641972 
C 261.486298 208.078378 240.785085 221.910486 223.34888 239.346692 
C 205.912674 256.782898 192.080566 277.48411 182.644159 300.265611 
C 173.207753 323.047111 168.350562 347.465857 168.350562 372.124375 
C 168.350562 396.782893 173.207753 421.201639 182.644159 443.983139 
C 192.080566 466.76464 205.912674 487.465852 223.34888 504.902058 
C 240.785085 522.338264 261.486298 536.170372 284.267798 545.606778 
C 307.049299 555.043185 331.468044 559.900375 356.126562 559.900375 
C 380.785081 559.900375 405.203826 555.043185 427.985327 545.606778 
C 450.766827 536.170372 471.46804 522.338264 488.904245 504.902058 
C 506.340451 487.465852 520.172559 466.76464 529.608966 443.983139 
C 539.045372 421.201639 543.902562 396.782893 543.902562 372.124375 
" clip-path="url(#p67637d4924)" style="fill: none; stroke-dasharray: 2.96,1.28; stroke-dashoffset: 0; stroke: #b0b0b0; stroke-opacity: 0.7; stroke-width: 0.8"/>
     </g>
     <g id="text_11">
      <!-- 60 -->
      <g transform="translate(529.608966 298.185923) scale(0.1 -0.1)">
       <defs>
        <path id="DejaVuSans-36" d="M 2113 2584 
Q 1688 2584 1439 2293 
Q 1191 2003 1191 1497 
Q 1191 994 1439 701 
Q 1688 409 2113 409 
Q 2538 409 2786 701 
Q 3034 994 3034 1497 
Q 3034 2003 2786 2293 
Q 2538 2584 2113 2584 
z
M 3366 4563 
L 3366 3988 
Q 3128 4100 2886 4159 
Q 2644 4219 2406 4219 
Q 1781 4219 1451 3797 
Q 1122 3375 1075 2522 
Q 1259 2794 1537 2939 
Q 1816 3084 2150 3084 
Q 2853 3084 3261 2657 
Q 3669 2231 3669 1497 
Q 3669 778 3244 343 
Q 2819 -91 2113 -91 
Q 1303 -91 875 529 
Q 447 1150 447 2328 
Q 447 3434 972 4092 
Q 1497 4750 2381 4750 
Q 2619 4750 2861 4703 
Q 3103 4656 3366 4563 
z
" transform="scale(0.015625)"/>
       </defs>
       <use xlink:href="#DejaVuSans-36"/>
       <use xlink:href="#DejaVuSans-30" transform="translate(63.623047 0)"/>
      </g>
     </g>
    </g>
    <g id="ytick_4">
     <g id="line2d_12">
      <path d="M 606.494562 372.124375 
C 606.494562 339.24635 600.018309 306.688023 587.436433 276.312689 
C 574.854558 245.937355 556.411747 218.335738 533.163473 195.087464 
C 509.915199 171.83919 482.313582 153.396379 451.938248 140.814504 
C 421.562914 128.232629 389.004587 121.756375 356.126562 121.756375 
C 323.248538 121.756375 290.690211 128.232629 260.314877 140.814504 
C 229.939543 153.396379 202.337926 171.83919 179.089652 195.087464 
C 155.841378 218.335738 137.398567 245.937355 124.816692 276.312689 
C 112.234816 306.688023 105.758562 339.24635 105.758562 372.124375 
C 105.758562 405.0024 112.234816 437.560727 124.816692 467.936061 
C 137.398567 498.311395 155.841378 525.913012 179.089652 549.161286 
C 202.337926 572.40956 229.939543 590.852371 260.314877 603.434246 
C 290.690211 616.016121 323.248538 622.492375 356.126562 622.492375 
C 389.004587 622.492375 421.562914 616.016121 451.938248 603.434246 
C 482.313582 590.852371 509.915199 572.40956 533.163473 549.161286 
C 556.411747 525.913012 574.854558 498.311395 587.436433 467.936061 
C 600.018309 437.560727 606.494562 405.0024 606.494562 372.124375 
" clip-path="url(#p67637d4924)" style="fill: none; stroke-dasharray: 2.96,1.28; stroke-dashoffset: 0; stroke: #b0b0b0; stroke-opacity: 0.7; stroke-width: 0.8"/>
     </g>
     <g id="text_12">
      <!-- 80 -->
      <g transform="translate(587.436433 274.233002) scale(0.1 -0.1)">
       <defs>
        <path id="DejaVuSans-38" d="M 2034 2216 
Q 1584 2216 1326 1975 
Q 1069 1734 1069 1313 
Q 1069 891 1326 650 
Q 1584 409 2034 409 
Q 2484 409 2743 651 
Q 3003 894 3003 1313 
Q 3003 1734 2745 1975 
Q 2488 2216 2034 2216 
z
M 1403 2484 
Q 997 2584 770 2862 
Q 544 3141 544 3541 
Q 544 4100 942 4425 
Q 1341 4750 2034 4750 
Q 2731 4750 3128 4425 
Q 3525 4100 3525 3541 
Q 3525 3141 3298 2862 
Q 3072 2584 2669 2484 
Q 3125 2378 3379 2068 
Q 3634 1759 3634 1313 
Q 3634 634 3220 271 
Q 2806 -91 2034 -91 
Q 1263 -91 848 271 
Q 434 634 434 1313 
Q 434 1759 690 2068 
Q 947 2378 1403 2484 
z
M 1172 3481 
Q 1172 3119 1398 2916 
Q 1625 2713 2034 2713 
Q 2441 2713 2670 2916 
Q 2900 3119 2900 3481 
Q 2900 3844 2670 4047 
Q 2441 4250 2034 4250 
Q 1625 4250 1398 4047 
Q 1172 3844 1172 3481 
z
" transform="scale(0.015625)"/>
       </defs>
       <use xlink:href="#DejaVuSans-38"/>
       <use xlink:href="#DejaVuSans-30" transform="translate(63.623047 0)"/>
      </g>
     </g>
    </g>
    <g id="ytick_5">
     <g id="line2d_13">
      <path d="M 669.086562 372.124375 
C 669.086562 331.026844 660.991245 290.328935 645.263901 252.359768 
C 629.536557 214.390601 606.483043 179.888579 577.422701 150.828237 
C 548.362358 121.767894 513.860337 98.714381 475.891169 82.987037 
C 437.922002 67.259692 397.224093 59.164375 356.126562 59.164375 
C 315.029032 59.164375 274.331123 67.259692 236.361956 82.987037 
C 198.392788 98.714381 163.890767 121.767894 134.830424 150.828237 
C 105.770082 179.888579 82.716568 214.390601 66.989224 252.359768 
C 51.26188 290.328935 43.166562 331.026844 43.166562 372.124375 
C 43.166562 413.221906 51.26188 453.919815 66.989224 491.888982 
C 82.716568 529.858149 105.770082 564.360171 134.830424 593.420513 
C 163.890767 622.480856 198.392788 645.534369 236.361956 661.261713 
C 274.331123 676.989058 315.029032 685.084375 356.126562 685.084375 
C 397.224093 685.084375 437.922002 676.989058 475.891169 661.261713 
C 513.860337 645.534369 548.362358 622.480856 577.422701 593.420513 
C 606.483043 564.360171 629.536557 529.858149 645.263901 491.888982 
C 660.991245 453.919815 669.086562 413.221906 669.086562 372.124375 
" clip-path="url(#p67637d4924)" style="fill: none; stroke-dasharray: 2.96,1.28; stroke-dashoffset: 0; stroke: #b0b0b0; stroke-opacity: 0.7; stroke-width: 0.8"/>
     </g>
     <g id="text_13">
      <!-- 100 -->
      <g transform="translate(645.263901 250.280081) scale(0.1 -0.1)">
       <defs>
        <path id="DejaVuSans-31" d="M 794 531 
L 1825 531 
L 1825 4091 
L 703 3866 
L 703 4441 
L 1819 4666 
L 2450 4666 
L 2450 531 
L 3481 531 
L 3481 0 
L 794 0 
L 794 531 
z
" transform="scale(0.015625)"/>
       </defs>
       <use xlink:href="#DejaVuSans-31"/>
       <use xlink:href="#DejaVuSans-30" transform="translate(63.623047 0)"/>
       <use xlink:href="#DejaVuSans-30" transform="translate(127.246094 0)"/>
      </g>
     </g>
    </g>
   </g>
   <g id="line2d_14">
    <path d="M 622.142562 372.124375 
L 522.098666 206.152271 
L 356.126562 153.052375 
L 179.089652 195.087464 
L 137.054562 372.124375 
L 190.154459 538.096479 
L 356.126562 591.196375 
L 533.163473 549.161286 
L 622.142562 372.124375 
" clip-path="url(#p67637d4924)" style="fill: none; stroke: #4a90e2; stroke-width: 2; stroke-linecap: square"/>
    <defs>
     <path id="me7d15df999" d="M 0 3 
C 0.795609 3 1.55874 2.683901 2.12132 2.12132 
C 2.683901 1.55874 3 0.795609 3 0 
C 3 -0.795609 2.683901 -1.55874 2.12132 -2.12132 
C 1.55874 -2.683901 0.795609 -3 0 -3 
C -0.795609 -3 -1.55874 -2.683901 -2.12132 -2.12132 
C -2.683901 -1.55874 -3 -0.795609 -3 0 
C -3 0.795609 -2.683901 1.55874 -2.12132 2.12132 
C -1.55874 2.683901 -0.795609 3 0 3 
z
" style="stroke: #4a90e2"/>
    </defs>
    <g clip-path="url(#p67637d4924)">
     <use xlink:href="#me7d15df999" x="622.142562" y="372.124375" style="fill: #4a90e2; stroke: #4a90e2"/>
     <use xlink:href="#me7d15df999" x="522.098666" y="206.152271" style="fill: #4a90e2; stroke: #4a90e2"/>
     <use xlink:href="#me7d15df999" x="356.126562" y="153.052375" style="fill: #4a90e2; stroke: #4a90e2"/>
     <use xlink:href="#me7d15df999" x="179.089652" y="195.087464" style="fill: #4a90e2; stroke: #4a90e2"/>
     <use xlink:href="#me7d15df999" x="137.054562" y="372.124375" style="fill: #4a90e2; stroke: #4a90e2"/>
     <use xlink:href="#me7d15df999" x="190.154459" y="538.096479" style="fill: #4a90e2; stroke: #4a90e2"/>
     <use xlink:href="#me7d15df999" x="356.126562" y="591.196375" style="fill: #4a90e2; stroke: #4a90e2"/>
     <use xlink:href="#me7d15df999" x="533.163473" y="549.161286" style="fill: #4a90e2; stroke: #4a90e2"/>
     <use xlink:href="#me7d15df999" x="622.142562" y="372.124375" style="fill: #4a90e2; stroke: #4a90e2"/>
    </g>
   </g>
   <g id="patch_4">
    <path d="M 669.086562 372.124375 
C 669.086562 331.026844 660.991245 290.328935 645.263901 252.359768 
C 629.536557 214.390601 606.483043 179.888579 577.422701 150.828237 
C 548.362358 121.767894 513.860337 98.714381 475.891169 82.987037 
C 437.922002 67.259692 397.224093 59.164375 356.126562 59.164375 
C 315.029032 59.164375 274.331123 67.259692 236.361956 82.987037 
C 198.392788 98.714381 163.890767 121.767894 134.830424 150.828237 
C 105.770082 179.888579 82.716568 214.390601 66.989224 252.359768 
C 51.26188 290.328935 43.166562 331.026844 43.166562 372.124375 
C 43.166562 413.221906 51.26188 453.919815 66.989224 491.888982 
C 82.716568 529.858149 105.770082 564.360171 134.830424 593.420513 
C 163.890767 622.480856 198.392788 645.534369 236.361956 661.261713 
C 274.331123 676.989058 315.029032 685.084375 356.126562 685.084375 
C 397.224093 685.084375 437.922002 676.989058 475.891169 661.261713 
C 513.860337 645.534369 548.362358 622.480856 577.422701 593.420513 
C 606.483043 564.360171 629.536557 529.858149 645.263901 491.888982 
C 660.991245 453.919815 669.086562 413.221906 669.086562 372.124375 
" style="fill: none; stroke: #000000; stroke-width: 0.8; stroke-linejoin: miter; stroke-linecap: square"/>
   </g>
   <g id="text_14">
    <!-- 技能雷达图 -->
    <g transform="translate(332.120312 19.3575) scale(0.16 -0.16)">
     <defs>
      <path id="DejaVuSans-Bold-6280" d="M 319 -1131 
L 319 4513 
L 3519 4513 
L 3519 -1131 
L 319 -1131 
z
M 678 -775 
L 3163 -775 
L 3163 4153 
L 678 4153 
L 678 -775 
z
" transform="scale(0.015625)"/>
      <path id="DejaVuSans-Bold-80fd" d="M 319 -1131 
L 319 4513 
L 3519 4513 
L 3519 -1131 
L 319 -1131 
z
M 678 -775 
L 3163 -775 
L 3163 4153 
L 678 4153 
L 678 -775 
z
" transform="scale(0.015625)"/>
      <path id="DejaVuSans-Bold-96f7" d="M 319 -1131 
L 319 4513 
L 3519 4513 
L 3519 -1131 
L 319 -1131 
z
M 678 -775 
L 3163 -775 
L 3163 4153 
L 678 4153 
L 678 -775 
z
" transform="scale(0.015625)"/>
      <path id="DejaVuSans-Bold-8fbe" d="M 319 -1131 
L 319 4513 
L 3519 4513 
L 3519 -1131 
L 319 -1131 
z
M 678 -775 
L 3163 -775 
L 3163 4153 
L 678 4153 
L 678 -775 
z
" transform="scale(0.015625)"/>
      <path id="DejaVuSans-Bold-56fe" d="M 319 -1131 
L 319 4513 
L 3519 4513 
L 3519 -1131 
L 319 -1131 
z
M 678 -775 
L 3163 -775 
L 3163 4153 
L 678 4153 
L 678 -775 
z
" transform="scale(0.015625)"/>
     </defs>
     <use xlink:href="#DejaVuSans-Bold-6280"/>
     <use xlink:href="#DejaVuSans-Bold-80fd" transform="translate(60.009766 0)"/>
     <use xlink:href="#DejaVuSans-Bold-96f7" transform="translate(120.019531 0)"/>
     <use xlink:href="#DejaVuSans-Bold-8fbe" transform="translate(180.029297 0)"/>
     <use xlink:href="#DejaVuSans-Bold-56fe" transform="translate(240.039062 0)"/>
    </g>
   </g>
  </g>
 </g>
 <defs>
  <clipPath id="p67637d4924">
   <path d="M 669.086562 372.124375 
C 669.086562 331.026844 660.991245 290.328935 645.263901 252.359768 
C 629.536557 214.390601 606.483043 179.888579 577.422701 150.828237 
C 548.362358 121.767894 513.860337 98.714381 475.891169 82.987037 
C 437.922002 67.259692 397.224093 59.164375 356.126562 59.164375 
C 315.029032 59.164375 274.331123 67.259692 236.361956 82.987037 
C 198.392788 98.714381 163.890767 121.767894 134.830424 150.828237 
C 105.770082 179.888579 82.716568 214.390601 66.989224 252.359768 
C 51.26188 290.328935 43.166563 331.026844 43.166563 372.124375 
C 43.166563 413.221906 51.26188 453.919815 66.989224 491.888982 
C 82.716568 529.858149 105.770082 564.360171 134.830424 593.420513 
C 163.890767 622.480856 198.392788 645.534369 236.361956 661.261713 
C 274.331123 676.989058 315.029032 685.084375 356.126562 685.084375 
C 397.224093 685.084375 437.922002 676.989058 475.891169 661.261713 
C 513.860337 645.534369 548.362358 622.480856 577.422701 593.420513 
C 606.483043 564.360171 629.536557 529.858149 645.263901 491.888982 
C 660.991245 453.919815 669.086562 413.221906 669.086562 372.124375 
M 356.126562 372.124375 
C 356.126562 372.124375 356.126562 372.124375 356.126562 372.124375 
C 356.126562 372.124375 356.126562 372.124375 356.126562 372.124375 
C 356.126562 372.124375 356.126562 372.124375 356.126562 372.124375 
C 356.126562 372.124375 356.126562 372.124375 356.126562 372.124375 
C 356.126562 372.124375 356.126562 372.124375 356.126562 372.124375 
C 356.126562 372.124375 356.126562 372.124375 356.126562 372.124375 
C 356.126562 372.124375 356.126562 372.124375 356.126562 372.124375 
C 356.126562 372.124375 356.126562 372.124375 356.126562 372.124375 
C 356.126562 372.124375 356.126562 372.124375 356.126562 372.124375 
C 356.126562 372.124375 356.126562 372.124375 356.126562 372.124375 
C 356.126562 372.124375 356.126562 372.124375 356.126562 372.124375 
C 356.126562 372.124375 356.126562 372.124375 356.126562 372.124375 
C 356.126562 372.124375 356.126562 372.124375 356.126562 372.124375 
C 356.126562 372.124375 356.126562 372.124375 356.126562 372.124375 
C 356.126562 372.124375 356.126562 372.124375 356.126562 372.124375 
C 356.126562 372.124375 356.126562 372.124375 356.126562 372.124375 
z
"/>
  </clipPath>
 </defs>
</svg>
